<svg xmlns="http://www.w3.org/2000/svg" viewBox="0 0 1000 1600">
  <defs>
    <linearGradient id="goldGrad" x1="0" y1="0" x2="1" y2="1">
      <stop offset="0%" stop-color="#F4D27A"/>
      <stop offset="50%" stop-color="#CFA74A"/>
      <stop offset="100%" stop-color="#8A6A22"/>
    </linearGradient>
    <filter id="softShadow" x="-20%" y="-20%" width="140%" height="140%">
      <feDropShadow dx="0" dy="10" stdDeviation="12" flood-color="#000" flood-opacity="0.18"/>
    </filter>
  </defs>
  <rect width="1000" height="1600" fill="none"/>
  <g filter="url(#softShadow)">
    <path d="M110 1480 L110 510 Q500 95 890 510 L890 1480 Z" fill="#FAF7F0" stroke="url(#goldGrad)" stroke-width="44"/>
    <path d="M165 1435 L165 550 Q500 195 835 550 L835 1435 Z" fill="none" stroke="#CFA74A" stroke-width="14"/>
    <path d="M205 1398 L205 585 Q500 270 795 585 L795 1398 Z" fill="none" stroke="#F4D27A" stroke-width="6" opacity="0.85"/>
  </g>
  <g opacity="0.95" stroke="#CFA74A" fill="none" stroke-width="7">
    <path d="M185 520 Q210 485 240 520 Q210 555 185 520Z"/>
    <path d="M815 520 Q790 485 760 520 Q790 555 815 520Z"/>
    <path d="M500 164 Q470 184 472 214 Q503 224 528 207 Q530 178 500 164Z" fill="#F4D27A" stroke="none"/>
  </g>
</svg>
