<svg xmlns="http://www.w3.org/2000/svg" viewBox="0 0 1000 1600">
  <rect width="1000" height="1600" fill="none"/>
  <g fill="#CFA74A" opacity="0.10">
    <circle cx="90" cy="120" r="2"/><circle cx="180" cy="260" r="2.5"/><circle cx="310" cy="140" r="1.8"/>
    <circle cx="420" cy="360" r="2"/><circle cx="560" cy="250" r="1.8"/><circle cx="660" cy="520" r="2.2"/>
    <circle cx="760" cy="210" r="2.1"/><circle cx="840" cy="430" r="2.4"/><circle cx="920" cy="170" r="1.7"/>
    <circle cx="120" cy="720" r="2.2"/><circle cx="230" cy="860" r="1.8"/><circle cx="380" cy="760" r="2.4"/>
    <circle cx="540" cy="890" r="2"/><circle cx="690" cy="780" r="1.8"/><circle cx="820" cy="980" r="2.6"/>
    <circle cx="930" cy="860" r="2.1"/><circle cx="170" cy="1180" r="2"/><circle cx="300" cy="1320" r="2.3"/>
    <circle cx="470" cy="1160" r="1.9"/><circle cx="620" cy="1370" r="2.5"/><circle cx="790" cy="1240" r="1.8"/>
    <circle cx="910" cy="1460" r="2.1"/>
  </g>
</svg>
